<?xml version="1.0" encoding="utf-8"?>
<!-- Generator: Adobe Illustrator 16.0.0, SVG Export Plug-In . SVG Version: 6.00 Build 0)  -->
<!DOCTYPE svg PUBLIC "-//W3C//DTD SVG 1.1//EN" "http://www.w3.org/Graphics/SVG/1.1/DTD/svg11.dtd">
<svg version="1.1" id="Layer_1" xmlns="http://www.w3.org/2000/svg" xmlns:xlink="http://www.w3.org/1999/xlink" x="0px" y="0px"
	 width="26.273px" height="26.276px" viewBox="0 0 26.273 26.276" enable-background="new 0 0 26.273 26.276" xml:space="preserve">
<g>
	<path fill="#fff" d="M11.991,13.292l-0.792,3.173c0.978,0.243,3.991,1.21,4.437-0.58C16.102,14.018,12.968,13.535,11.991,13.292
		z"/>
	<path fill="#fff" d="M13.07,8.96l-0.717,2.879c0.813,0.202,3.322,1.029,3.729-0.599C16.505,9.542,13.884,9.164,13.07,8.96z"/>
	<path fill="#fff" d="M16.313,0.393C9.276-1.362,2.148,2.921,0.394,9.961C-1.362,17,2.922,24.128,9.958,25.883
		c7.039,1.754,14.168-2.528,15.923-9.567C27.635,9.278,23.352,2.148,16.313,0.393z M18.929,11.266
		c-0.189,1.28-0.898,1.899-1.84,2.117c1.293,0.674,1.952,1.706,1.324,3.496c-0.778,2.223-2.626,2.411-5.084,1.945l-0.597,2.391
		l-1.441-0.359l0.588-2.358c-0.374-0.093-0.755-0.191-1.148-0.299L10.14,20.57L8.701,20.21l0.597-2.396
		C8.96,17.729,8.618,17.637,8.27,17.55l-1.876-0.468l0.716-1.651c0,0,1.062,0.283,1.047,0.262c0.408,0.101,0.589-0.165,0.661-0.342
		l0.943-3.779c0.053,0.013,0.104,0.025,0.152,0.037c-0.058-0.022-0.109-0.037-0.15-0.048l0.673-2.697
		c0.018-0.307-0.087-0.693-0.671-0.839C9.786,8.01,8.716,7.764,8.716,7.764L9.1,6.225l1.988,0.496l-0.001,0.008
		c0.299,0.074,0.606,0.145,0.921,0.216l0.59-2.367l1.441,0.359l-0.579,2.321c0.387,0.088,0.775,0.177,1.155,0.271l0.575-2.306
		l1.441,0.359L16.04,7.952C17.86,8.579,19.191,9.518,18.929,11.266z"/>
</g>
</svg>
