<?xml version="1.0" encoding="utf-8"?>
<!-- Generator: Adobe Illustrator 16.0.0, SVG Export Plug-In . SVG Version: 6.00 Build 0)  -->
<!DOCTYPE svg PUBLIC "-//W3C//DTD SVG 1.1//EN" "http://www.w3.org/Graphics/SVG/1.1/DTD/svg11.dtd">
<svg version="1.1" id="Layer_1" xmlns="http://www.w3.org/2000/svg" xmlns:xlink="http://www.w3.org/1999/xlink" x="0px" y="0px"
	 width="24.375px" height="24.374px" viewBox="0 0 24.375 24.374" enable-background="new 0 0 24.375 24.374" xml:space="preserve">
<g>
	<path fill="#fff" d="M17.975,18.897c-3.452,3.451-9.047,3.451-12.498,0s-3.451-9.047,0-12.497
		c2.653-2.654,6.572-3.259,9.811-1.832l2.68-1.844C13.438-0.131,7.38,0.411,3.435,4.357c-4.58,4.579-4.58,12.003,0,16.582
		c4.579,4.579,12.003,4.579,16.582,0c3.946-3.945,4.488-10.003,1.633-14.533l-1.844,2.68C21.232,12.326,20.628,16.244,17.975,18.897
		z"/>
	<polygon fill="#fff" points="12.257,17.02 7.354,12.116 6.456,17.918 	"/>
	<polygon fill="#fff" points="24.375,0 8.661,10.81 13.564,15.713 	"/>
</g>
</svg>
