<?xml version="1.0" encoding="utf-8"?>
<!-- Generator: Adobe Illustrator 16.0.0, SVG Export Plug-In . SVG Version: 6.00 Build 0)  -->
<!DOCTYPE svg PUBLIC "-//W3C//DTD SVG 1.1//EN" "http://www.w3.org/Graphics/SVG/1.1/DTD/svg11.dtd">
<svg version="1.1" id="Layer_1" xmlns="http://www.w3.org/2000/svg" xmlns:xlink="http://www.w3.org/1999/xlink" x="0px" y="0px"
	 width="26.667px" height="26.01px" viewBox="0 0 26.667 26.01" enable-background="new 0 0 26.667 26.01" xml:space="preserve">
<path fill-rule="evenodd" clip-rule="evenodd" fill="#fff" d="M13.333,0C5.97,0,0,5.97,0,13.334
	c0,5.891,3.819,10.889,9.12,12.652c0.666,0.121,0.876-0.273,0.876-0.627c0-0.316,0.007-1.202,0-2.315
	c-3.708,0.806-4.477-1.756-4.477-1.756c-0.605-1.541-1.48-1.951-1.48-1.951c-1.21-0.827,0.091-0.811,0.091-0.811
	c1.338,0.095,2.043,1.375,2.043,1.375c1.189,2.037,3.12,1.448,3.88,1.107c0.121-0.861,0.466-1.449,0.847-1.782
	c-2.96-0.337-6.073-1.48-6.073-6.59c0-1.456,0.519-2.646,1.372-3.578C6.062,8.722,5.604,7.366,6.33,5.529
	c0,0,1.119-0.358,3.666,1.367c1.064-0.296,2.205-0.443,3.339-0.448c1.133,0.005,2.272,0.152,3.338,0.448
	c2.546-1.726,3.664-1.367,3.664-1.367c0.727,1.837,0.27,3.192,0.133,3.529c0.853,0.933,1.37,2.122,1.37,3.578
	c0,5.122-3.118,6.25-6.088,6.578c0.479,0.413,0.913,1.213,0.913,2.457c0,1.667,0,3.253,0,3.69c0,0.356,0.215,0.752,0.893,0.622
	c5.294-1.767,9.11-6.761,9.11-12.65C26.667,5.97,20.697,0,13.333,0z"/>
</svg>
