<?xml version="1.0" encoding="utf-8"?>
<!-- Generator: Adobe Illustrator 16.0.0, SVG Export Plug-In . SVG Version: 6.00 Build 0)  -->
<!DOCTYPE svg PUBLIC "-//W3C//DTD SVG 1.1//EN" "http://www.w3.org/Graphics/SVG/1.1/DTD/svg11.dtd">
<svg version="1.1" id="Layer_1" xmlns="http://www.w3.org/2000/svg" xmlns:xlink="http://www.w3.org/1999/xlink" x="0px" y="0px"
	 width="24.415px" height="24.414px" viewBox="0 0 24.415 24.414" enable-background="new 0 0 24.415 24.414" xml:space="preserve">
<g id="instagram_1_">
	<path fill="#fff" d="M12.207,2.2c3.259,0,3.646,0.012,4.933,0.071c1.19,0.055,1.837,0.253,2.267,0.42
		c0.57,0.221,0.977,0.486,1.404,0.913c0.427,0.427,0.692,0.834,0.913,1.404c0.167,0.43,0.366,1.077,0.42,2.267
		c0.059,1.287,0.072,1.673,0.072,4.933s-0.013,3.645-0.072,4.933c-0.054,1.19-0.253,1.836-0.42,2.267
		c-0.221,0.57-0.486,0.977-0.913,1.404c-0.427,0.427-0.834,0.691-1.404,0.913c-0.43,0.167-1.077,0.366-2.267,0.42
		c-1.287,0.059-1.673,0.071-4.933,0.071s-3.646-0.013-4.933-0.071c-1.19-0.054-1.836-0.253-2.267-0.42
		c-0.57-0.221-0.977-0.486-1.403-0.913c-0.427-0.427-0.692-0.834-0.914-1.404c-0.167-0.43-0.366-1.077-0.42-2.267
		C2.212,15.853,2.2,15.467,2.2,12.208s0.012-3.646,0.071-4.933c0.054-1.19,0.253-1.837,0.42-2.267
		c0.222-0.569,0.486-0.977,0.914-1.404c0.427-0.427,0.833-0.692,1.403-0.913c0.43-0.167,1.077-0.366,2.267-0.42
		C8.562,2.212,8.948,2.2,12.207,2.2 M12.207,0C8.892,0,8.476,0.014,7.174,0.074C5.875,0.133,4.987,0.339,4.211,0.641
		C3.408,0.953,2.728,1.371,2.049,2.049C1.37,2.728,0.953,3.408,0.641,4.211C0.339,4.987,0.133,5.875,0.074,7.174
		C0.014,8.476,0,8.892,0,12.208c0,3.315,0.014,3.731,0.074,5.033c0.059,1.299,0.266,2.187,0.567,2.963
		c0.312,0.803,0.729,1.483,1.408,2.162s1.359,1.096,2.162,1.408c0.776,0.302,1.664,0.508,2.963,0.567
		c1.302,0.059,1.718,0.073,5.033,0.073c3.315,0,3.731-0.014,5.033-0.073c1.299-0.059,2.187-0.266,2.963-0.567
		c0.803-0.312,1.483-0.729,2.162-1.408s1.096-1.359,1.409-2.162c0.302-0.777,0.508-1.664,0.567-2.963
		c0.059-1.302,0.074-1.718,0.074-5.033c0-3.315-0.015-3.731-0.074-5.033c-0.059-1.299-0.265-2.187-0.567-2.963
		c-0.313-0.803-0.73-1.483-1.409-2.162c-0.679-0.679-1.359-1.097-2.162-1.408c-0.776-0.302-1.664-0.508-2.963-0.567
		C15.938,0.014,15.522,0,12.207,0L12.207,0z"/>
	<path fill="#fff" d="M12.207,5.938c-3.462,0-6.268,2.807-6.268,6.269c0,3.462,2.806,6.268,6.268,6.268
		c3.462,0,6.269-2.806,6.269-6.268C18.476,8.745,15.669,5.938,12.207,5.938z M12.207,16.276c-2.247,0-4.069-1.822-4.069-4.069
		c0-2.248,1.822-4.069,4.069-4.069c2.248,0,4.069,1.822,4.069,4.069C16.276,14.455,14.455,16.276,12.207,16.276z"/>
	<circle fill="#fff" cx="18.723" cy="5.691" r="1.465"/>
</g>
</svg>
