<?xml version="1.0" encoding="utf-8"?>
<!-- Generator: Adobe Illustrator 16.0.0, SVG Export Plug-In . SVG Version: 6.00 Build 0)  -->
<!DOCTYPE svg PUBLIC "-//W3C//DTD SVG 1.1//EN" "http://www.w3.org/Graphics/SVG/1.1/DTD/svg11.dtd">
<svg version="1.1" id="Layer_1" xmlns="http://www.w3.org/2000/svg" xmlns:xlink="http://www.w3.org/1999/xlink" x="0px" y="0px"
	 width="26.05px" height="20.683px" viewBox="0 0 26.05 20.683" enable-background="new 0 0 26.05 20.683" xml:space="preserve">
<g>
	<path fill="#fff" d="M18.854,17.267l6.838,3.264c0.136,0.066,0.266,0.104,0.358,0.106L26.024,6.136L18.854,17.267z"/>
	<path fill="#fff" d="M17.885,0.038l-5.294,8.211l5.037,7.813L25.636,3.63L18.031,0C17.952,0.006,17.896,0.023,17.885,0.038z"/>
	<polygon fill="#fff" points="9.235,6.148 9.235,12.676 15.314,15.578 	"/>
	<path fill="#fff" d="M0,16.796c0,0.117,0.151,0.36,0.286,0.424l7.192,3.433c0.027,0.013,0.052,0.023,0.074,0.03
		c0-0.008,0-0.016,0-0.025V3.822l-7.55-3.604L0,16.796z"/>
</g>
</svg>
