<?xml version="1.0" encoding="utf-8"?>
<!-- Generator: Adobe Illustrator 16.0.0, SVG Export Plug-In . SVG Version: 6.00 Build 0)  -->
<!DOCTYPE svg PUBLIC "-//W3C//DTD SVG 1.1//EN" "http://www.w3.org/Graphics/SVG/1.1/DTD/svg11.dtd">
<svg version="1.1" id="Layer_1" xmlns="http://www.w3.org/2000/svg" xmlns:xlink="http://www.w3.org/1999/xlink" x="0px" y="0px"
	 width="29.102px" height="24.442px" viewBox="0 0 29.102 24.442" enable-background="new 0 0 29.102 24.442" xml:space="preserve">
<g>
	<path fill="#fff" d="M29.102,11.919c0-1.936-1.573-3.509-3.509-3.509c-0.848,0-1.574,0.303-2.179,0.787
		c-2.117-1.331-4.84-2.117-7.744-2.299l1.513-4.78l4.175,0.968c0.121,1.513,1.391,2.723,2.903,2.723
		c1.635,0,2.904-1.332,2.904-2.904C27.165,1.271,25.834,0,24.261,0c-1.149,0-2.117,0.666-2.601,1.573l-4.841-1.149
		c-0.423-0.121-0.786,0.121-0.968,0.544l-1.876,5.929c-3.146,0.061-6.05,0.907-8.349,2.299C5.022,8.712,4.296,8.47,3.51,8.47
		C1.573,8.47,0,10.043,0,11.979c0,1.21,0.605,2.239,1.514,2.844c-0.062,0.302-0.062,0.544-0.062,0.847
		c0,2.42,1.392,4.659,3.933,6.292c2.42,1.573,5.627,2.48,9.075,2.48c3.389,0,6.655-0.847,9.075-2.48
		c2.541-1.633,3.933-3.872,3.933-6.292c0-0.242,0-0.484-0.061-0.787C28.436,14.218,29.102,13.129,29.102,11.919z M24.261,1.513
		c0.727,0,1.332,0.605,1.332,1.331c0,0.726-0.605,1.331-1.332,1.331c-0.726,0-1.33-0.605-1.33-1.331
		C22.931,2.118,23.535,1.513,24.261,1.513z M8.289,14.036c0-1.089,0.907-1.997,1.997-1.997c1.089,0,1.936,0.908,1.936,1.997
		c0,1.089-0.907,1.936-1.936,1.936C9.196,16.033,8.289,15.125,8.289,14.036z M19.36,19.845c-1.028,1.028-2.541,1.512-4.779,1.512
		l0,0l0,0c-2.178,0-3.751-0.484-4.78-1.512c-0.302-0.303-0.302-0.787,0-1.15c0.303-0.302,0.787-0.302,1.15,0
		c0.726,0.726,1.875,1.029,3.63,1.029l0,0l0,0c1.755,0,2.965-0.363,3.63-1.029c0.303-0.302,0.787-0.302,1.149,0
		C19.663,18.997,19.663,19.542,19.36,19.845z M18.876,16.033c-1.088,0-1.996-0.908-1.996-1.936c0-1.029,0.908-1.997,1.996-1.997
		c1.09,0,1.937,0.908,1.937,1.997S19.966,16.033,18.876,16.033z"/>
</g>
</svg>
