<?xml version="1.0" encoding="utf-8"?>
<!-- Generator: Adobe Illustrator 16.0.0, SVG Export Plug-In . SVG Version: 6.00 Build 0)  -->
<!DOCTYPE svg PUBLIC "-//W3C//DTD SVG 1.1//EN" "http://www.w3.org/Graphics/SVG/1.1/DTD/svg11.dtd">
<svg version="1.1" id="Layer_1" xmlns="http://www.w3.org/2000/svg" xmlns:xlink="http://www.w3.org/1999/xlink" x="0px" y="0px"
	 width="26.438px" height="26.438px" viewBox="207.257 56.022 26.438 26.438" enable-background="new 207.257 56.022 26.438 26.438"
	 xml:space="preserve">
<g>
	
		<rect x="218.694" y="67.393" transform="matrix(0.3176 0.9482 -0.9482 0.3176 216.1343 -161.8023)" fill="#fff" width="3.582" height="3.747"/>
	
		<rect x="218.694" y="67.393" transform="matrix(0.3176 0.9482 -0.9482 0.3176 216.1343 -161.8023)" fill="#fff" width="3.582" height="3.747"/>
	<path fill="#fff" d="M232.599,65.603c-2.756-9.092-6.667-11.187-15.76-8.485c-9.092,2.755-11.188,6.668-8.486,15.76
		c2.755,9.092,6.667,11.187,15.759,8.485C233.205,78.606,235.299,74.694,232.599,65.603z M227.97,71.498l-1.708,0.551l0.605,1.764
		c0.221,0.717-0.165,1.488-0.882,1.709c-0.165,0.056-0.331,0.056-0.496,0.056c-0.552,0-1.103-0.387-1.268-0.938l-0.605-1.764
		l-3.527,1.157l0.605,1.764c0.221,0.716-0.166,1.487-0.882,1.708c-0.165,0.055-0.331,0.055-0.496,0.055
		c-0.551,0-1.102-0.386-1.268-0.937l-0.605-1.765l-1.708,0.553c-0.166,0.055-0.33,0.055-0.495,0.055
		c-0.552,0-1.104-0.386-1.269-0.938c-0.221-0.717,0.165-1.487,0.881-1.708l1.708-0.552l-1.047-3.251l-1.708,0.551
		c-0.166,0.057-0.331,0.057-0.496,0.057c-0.551,0-1.103-0.386-1.268-0.938c-0.222-0.717,0.165-1.487,0.881-1.709l1.708-0.551
		l-0.606-1.763c-0.22-0.717,0.165-1.488,0.883-1.709c0.716-0.221,1.486,0.166,1.708,0.882l0.605,1.764l3.526-1.157l-0.605-1.764
		c-0.221-0.717,0.165-1.487,0.881-1.708c0.718-0.221,1.488,0.165,1.708,0.882l0.607,1.764l1.708-0.552
		c0.716-0.221,1.488,0.166,1.708,0.883s-0.166,1.487-0.882,1.708l-1.708,0.551l1.156,3.417l1.708-0.551
		c0.717-0.222,1.487,0.165,1.708,0.881C229.127,70.506,228.742,71.278,227.97,71.498z"/>
</g>
</svg>
