<?xml version="1.0" encoding="utf-8"?>
<!-- Generator: Adobe Illustrator 16.0.0, SVG Export Plug-In . SVG Version: 6.00 Build 0)  -->
<!DOCTYPE svg PUBLIC "-//W3C//DTD SVG 1.1//EN" "http://www.w3.org/Graphics/SVG/1.1/DTD/svg11.dtd">
<svg version="1.1" id="Layer_1" xmlns="http://www.w3.org/2000/svg" xmlns:xlink="http://www.w3.org/1999/xlink" x="0px" y="0px"
	 width="25.87px" height="21.882px" viewBox="0 0 25.87 21.882" enable-background="new 0 0 25.87 21.882" xml:space="preserve">
<path id="telegram_2_" fill="#fff" d="M24.161,0.178L0.975,8.957c-1.268,0.366-1.228,1.619-0.29,1.92l5.81,1.813l2.223,6.814
	c0.271,0.746,0.491,1.027,0.953,1.033c0.485,0.007,0.67-0.17,1.174-0.615c0.59-0.554,1.488-1.426,2.907-2.806l6.043,4.465
	c1.112,0.613,1.915,0.296,2.191-1.032l3.788-18.741C26.181,0.181,25.224-0.305,24.161,0.178z M7.406,12.273l13.208-8.286
	c0.65-0.437,0.854,0.051,0.561,0.387l-10.961,9.86l-0.563,4.921L7.406,12.273z"/>
</svg>
