<?xml version="1.0" encoding="utf-8"?>
<!-- Generator: Adobe Illustrator 16.0.0, SVG Export Plug-In . SVG Version: 6.00 Build 0)  -->
<!DOCTYPE svg PUBLIC "-//W3C//DTD SVG 1.1//EN" "http://www.w3.org/Graphics/SVG/1.1/DTD/svg11.dtd">
<svg version="1.1" id="Layer_1" xmlns="http://www.w3.org/2000/svg" xmlns:xlink="http://www.w3.org/1999/xlink" x="0px" y="0px"
	 width="26.844px" height="21.816px" viewBox="0 0 26.844 21.816" enable-background="new 0 0 26.844 21.816" xml:space="preserve">
<path id="twitter_1_" fill="#fff" d="M26.844,2.582c-0.987,0.438-2.049,0.734-3.163,0.868c1.137-0.682,2.01-1.762,2.421-3.048
	c-1.064,0.632-2.243,1.09-3.497,1.337C21.601,0.669,20.169,0,18.585,0c-3.042,0-5.507,2.466-5.507,5.507
	c0,0.433,0.049,0.853,0.143,1.256C8.644,6.533,4.585,4.341,1.869,1.008c-0.474,0.813-0.746,1.76-0.746,2.769
	c0,1.911,0.973,3.597,2.451,4.585C2.671,8.332,1.821,8.085,1.079,7.672c0,0.023,0,0.046,0,0.069c0,2.669,1.899,4.895,4.418,5.4
	c-0.462,0.126-0.949,0.193-1.452,0.193c-0.354,0-0.699-0.035-1.036-0.099c0.701,2.188,2.735,3.78,5.145,3.824
	c-1.885,1.478-4.26,2.357-6.839,2.357c-0.445,0-0.884-0.025-1.314-0.077c2.438,1.563,5.332,2.476,8.442,2.476
	c10.13,0,15.67-8.394,15.67-15.671c0-0.238-0.005-0.476-0.017-0.712C25.172,4.657,26.105,3.688,26.844,2.582z"/>
</svg>
