<?xml version="1.0" encoding="utf-8"?>
<!-- Generator: Adobe Illustrator 16.0.0, SVG Export Plug-In . SVG Version: 6.00 Build 0)  -->
<!DOCTYPE svg PUBLIC "-//W3C//DTD SVG 1.1//EN" "http://www.w3.org/Graphics/SVG/1.1/DTD/svg11.dtd">
<svg version="1.1" id="Layer_1" xmlns="http://www.w3.org/2000/svg" xmlns:xlink="http://www.w3.org/1999/xlink" x="0px" y="0px"
	 width="21.905px" height="26.495px" viewBox="0 0 21.905 26.495" enable-background="new 0 0 21.905 26.495" xml:space="preserve">
<g id="youtube_1_">
	<g>
		<path fill="#fff" d="M18.289,17.397c-0.442,0-0.663,0.337-0.663,1.013v0.677h1.323V18.41
			C18.949,17.735,18.728,17.397,18.289,17.397z"/>
		<path fill="#fff" d="M21.526,13.684c-0.269-1.165-1.222-2.024-2.368-2.152c-2.716-0.304-5.465-0.305-8.202-0.304
			c-2.737-0.001-5.486,0-8.203,0.304c-1.147,0.128-2.1,0.987-2.367,2.152C0.004,15.343,0,17.153,0,18.862
			c0,1.708,0,3.519,0.381,5.178c0.268,1.166,1.221,2.024,2.368,2.152c2.716,0.303,5.465,0.305,8.202,0.303
			c2.738,0.001,5.487,0,8.203-0.303c1.147-0.128,2.1-0.987,2.368-2.152c0.382-1.659,0.384-3.47,0.384-5.178
			C21.905,17.153,21.907,15.343,21.526,13.684z M6.248,15.176H4.663v8.425H3.19v-8.425H1.633v-1.38h4.615V15.176z M10.248,23.601
			H8.923v-0.797c-0.526,0.604-1.026,0.898-1.512,0.898c-0.427,0-0.72-0.173-0.853-0.543c-0.073-0.221-0.117-0.571-0.117-1.086
			v-5.777h1.323v5.378c0,0.311,0,0.472,0.012,0.516c0.032,0.205,0.133,0.31,0.309,0.31c0.266,0,0.544-0.205,0.837-0.62v-5.584h1.325
			V23.601z M15.276,21.408c0,0.675-0.045,1.163-0.134,1.472c-0.176,0.543-0.531,0.821-1.058,0.821c-0.471,0-0.926-0.262-1.368-0.809
			v0.708h-1.323v-9.805h1.323v3.202c0.427-0.526,0.881-0.792,1.368-0.792c0.527,0,0.881,0.277,1.058,0.824
			c0.089,0.294,0.134,0.776,0.134,1.469V21.408z M20.272,20.189h-2.647v1.295c0,0.676,0.221,1.014,0.676,1.014
			c0.326,0,0.516-0.177,0.591-0.531c0.012-0.073,0.029-0.366,0.029-0.897h1.351v0.193c0,0.426-0.017,0.72-0.028,0.853
			c-0.044,0.294-0.148,0.559-0.309,0.793c-0.366,0.53-0.91,0.792-1.601,0.792c-0.692,0-1.219-0.25-1.602-0.749
			c-0.281-0.366-0.426-0.942-0.426-1.718v-2.558c0-0.781,0.128-1.352,0.409-1.722c0.383-0.5,0.91-0.749,1.586-0.749
			c0.664,0,1.19,0.249,1.562,0.749c0.277,0.37,0.41,0.941,0.41,1.722V20.189z"/>
		<path fill="#fff" d="M13.376,17.397c-0.218,0-0.438,0.104-0.66,0.322v4.453c0.221,0.221,0.442,0.326,0.66,0.326
			c0.382,0,0.576-0.326,0.576-0.986v-3.117C13.953,17.735,13.758,17.397,13.376,17.397z"/>
	</g>
	<path fill-rule="evenodd" clip-rule="evenodd" fill="#fff" d="M8.66,0H7.161L6.15,3.889L5.097,0h-1.56
		c0.312,0.918,0.638,1.841,0.951,2.76c0.475,1.38,0.771,2.421,0.905,3.132v4.01h1.483v-4.01L8.66,0z M12.623,7.514V4.929
		c0-0.789-0.135-1.365-0.415-1.739c-0.371-0.503-0.89-0.755-1.56-0.755c-0.666,0-1.187,0.252-1.557,0.755
		C8.807,3.563,8.672,4.14,8.672,4.929v2.585c0,0.784,0.134,1.365,0.419,1.735c0.37,0.503,0.891,0.756,1.557,0.756
		c0.67,0,1.189-0.253,1.56-0.756C12.488,8.879,12.623,8.297,12.623,7.514z M11.286,7.765c0,0.683-0.207,1.024-0.638,1.024
		c-0.431,0-0.638-0.341-0.638-1.024V4.66c0-0.683,0.207-1.021,0.638-1.021c0.431,0,0.638,0.339,0.638,1.021V7.765z M17.568,9.902
		V2.523H16.23v5.64c-0.296,0.419-0.578,0.626-0.844,0.626c-0.18,0-0.284-0.105-0.313-0.313c-0.016-0.043-0.016-0.207-0.016-0.521
		V2.523h-1.333v5.835c0,0.521,0.044,0.875,0.118,1.097c0.133,0.374,0.431,0.549,0.861,0.549c0.488,0,0.995-0.297,1.527-0.908v0.805
		H17.568z"/>
</g>
</svg>
